<svg width="243" height="51" viewBox="0 0 243 51" fill="none" xmlns="http://www.w3.org/2000/svg">
<path d="M57.5625 17.8525C57.5625 16.9229 57.8779 16.1426 58.5088 15.5117C59.1729 14.8477 59.9697 14.5156 60.8994 14.5156H89.8857C90.8154 14.5156 91.6123 14.8311 92.2764 15.4619C92.9072 16.126 93.2227 16.9229 93.2227 17.8525C93.2227 18.7822 92.8906 19.5791 92.2266 20.2432C91.5957 20.874 90.8154 21.1895 89.8857 21.1895H78.7793V41.3604C78.5801 43.3525 77.4844 44.4316 75.4922 44.5977C74.5625 44.5977 73.749 44.2988 73.0518 43.7012C72.3877 43.0703 72.0557 42.29 72.0557 41.3604V21.1895H60.8994C59.9697 21.1895 59.1895 20.8574 58.5586 20.1934C57.8945 19.5625 57.5625 18.7822 57.5625 17.8525ZM99.498 27.5645C100.129 25.9707 101.191 24.543 102.686 23.2812C104.213 21.9863 106.139 21.3223 108.463 21.2891H127.189C128.119 21.2891 128.899 21.6211 129.53 22.2852C130.194 22.916 130.526 23.6963 130.526 24.626C130.526 25.5557 130.194 26.3525 129.53 27.0166C128.899 27.6475 128.119 27.9629 127.189 27.9629H108.264C107.633 27.9629 107.085 28.2285 106.62 28.7598C106.155 29.2578 105.79 29.8555 105.524 30.5527C105.292 31.25 105.176 31.9141 105.176 32.5449V41.2607C104.977 43.2529 103.881 44.332 101.889 44.498C100.959 44.498 100.146 44.1992 99.4482 43.6016C98.7842 42.9707 98.4521 42.1904 98.4521 41.2607V32.5947H98.502C98.502 30.8682 98.834 29.1914 99.498 27.5645ZM145.667 43.9004C142.745 43.8008 140.537 43.1201 139.043 41.8584C137.549 40.5635 136.47 39.1191 135.806 37.5254C135.142 35.8984 134.81 34.2549 134.81 32.5947C134.81 30.8682 135.125 29.208 135.756 27.6143C136.42 25.9873 137.499 24.543 138.993 23.2812C140.521 21.9863 142.446 21.3223 144.771 21.2891H163.696C164.626 21.2891 165.406 21.6045 166.037 22.2354C166.701 22.833 167.033 23.5635 167.033 24.4268C167.033 25.3232 166.701 26.0869 166.037 26.7178C165.406 27.3154 164.626 27.6143 163.696 27.6143H145.069C144.339 27.6143 143.691 27.8633 143.127 28.3613C142.596 28.8594 142.197 29.5068 141.932 30.3037C141.699 31.1006 141.583 31.8809 141.583 32.6445C141.583 33.4746 141.699 34.2881 141.932 35.085C142.197 35.8818 142.596 36.5293 143.127 37.0273C143.691 37.4922 144.339 37.7412 145.069 37.7744H163.696C164.626 37.7744 165.406 38.0732 166.037 38.6709C166.701 39.2686 167.033 39.9824 167.033 40.8125C167.033 41.6758 166.701 42.4062 166.037 43.0039C165.406 43.6016 164.626 43.9004 163.696 43.9004H145.667ZM166.436 32.4951C166.436 33.126 166.153 33.6738 165.589 34.1387C165.091 34.5703 164.46 34.7861 163.696 34.7861H147.41C146.646 34.7861 145.999 34.5703 145.468 34.1387C144.937 33.6738 144.671 33.126 144.671 32.4951C144.671 31.8975 144.937 31.3662 145.468 30.9014C145.999 30.4697 146.646 30.2539 147.41 30.2539H163.696C164.46 30.2539 165.107 30.4863 165.639 30.9512C166.17 31.3828 166.436 31.8975 166.436 32.4951ZM182.024 14.5156H184.315H201.249C202.179 14.5488 202.942 14.8975 203.54 15.5615C204.171 16.2256 204.486 17.0225 204.486 17.9521C204.32 19.9443 203.241 21.0234 201.249 21.1895H183.718C182.456 21.2559 181.41 21.7373 180.58 22.6338C179.75 23.5303 179.136 24.5596 178.737 25.7217C178.372 26.8506 178.189 28.0127 178.189 29.208C178.189 30.4033 178.372 31.582 178.737 32.7441C179.136 33.873 179.75 34.8857 180.58 35.7822C181.41 36.6787 182.456 37.1602 183.718 37.2266H201.249C202.179 37.2598 202.942 37.6084 203.54 38.2725C204.171 38.9365 204.486 39.7334 204.486 40.6631C204.453 41.5596 204.121 42.3232 203.49 42.9541C202.893 43.5518 202.146 43.8672 201.249 43.9004H182.971H182.024C179.7 43.7676 177.774 42.8877 176.247 41.2607C174.753 39.6006 173.674 37.7246 173.01 35.6328C172.379 33.541 172.063 31.3994 172.063 29.208C172.063 27.0166 172.396 24.875 173.06 22.7832C173.724 20.6914 174.803 18.832 176.297 17.2051C177.791 15.5449 179.7 14.6484 182.024 14.5156ZM204.387 29.0088C204.387 29.9385 204.055 30.7188 203.391 31.3496C202.76 32.0137 201.979 32.3457 201.05 32.3457H186.009C185.079 32.3457 184.282 32.0303 183.618 31.3994C182.987 30.7354 182.672 29.9385 182.672 29.0088C182.672 28.0791 182.987 27.2822 183.618 26.6182C184.282 25.9873 185.079 25.6719 186.009 25.6719H201.05C201.979 25.6719 202.76 26.0039 203.391 26.668C204.055 27.2988 204.387 28.0791 204.387 29.0088ZM220.822 21.1895C219.561 21.2559 218.498 21.7373 217.635 22.6338C216.805 23.5303 216.207 24.5596 215.842 25.7217C215.477 26.8506 215.294 28.0127 215.294 29.208C215.294 30.4033 215.46 31.582 215.792 32.7441C216.157 33.9062 216.771 34.9355 217.635 35.832C218.498 36.6953 219.561 37.1602 220.822 37.2266H237.258C239.35 37.4258 240.495 38.5713 240.694 40.6631C240.661 41.5928 240.312 42.373 239.648 43.0039C238.984 43.6016 238.188 43.9004 237.258 43.9004H221.37H219.079C216.755 43.7676 214.846 42.8877 213.352 41.2607C211.857 39.6006 210.778 37.7246 210.114 35.6328C209.483 33.541 209.168 31.3994 209.168 29.208C209.168 27.5811 209.351 25.9707 209.716 24.377C210.081 22.7832 210.646 21.2725 211.409 19.8447C212.206 18.3838 213.252 17.1387 214.547 16.1094C215.875 15.0801 217.386 14.5488 219.079 14.5156H220.025H237.258C239.35 14.7148 240.495 15.8604 240.694 17.9521C240.694 18.8818 240.346 19.6621 239.648 20.293C238.984 20.8906 238.188 21.1895 237.258 21.1895H220.822Z" fill="#219073"/>
<path d="M24.225 1.45703C10.8459 1.45703 0 10.9951 0 22.761V50.1518H6.92143V37.9781C6.92143 26.2122 17.7673 16.6741 31.1464 16.6741H38.0679C24.6887 16.6741 13.8429 26.2122 13.8429 37.9781V44.065H24.225C37.6041 44.065 48.45 34.5269 48.45 22.761V1.45703H24.225Z" fill="#219073"/>
</svg>
